<svg height="512pt" viewBox="0 0 512 512" width="512pt" xmlns="http://www.w3.org/2000/svg">
<path d="m475 205.300781c-5.398438-24.300781-15-47.402343-28.199219-68.402343l18.898438-31.800782-58.796875-58.796875-31.804688 18.898438c-20.996094-13.199219-44.097656-22.800781-68.398437-28.199219l-9-37h-83.398438l-9 37c-24.300781 5.398438-47.402343 15-68.398437 28.199219l-31.804688-18.898438-58.796875 58.796875 18.898438 31.800782c-13.199219 21-22.800781 44.101562-28.199219 68.402343l-37 9v83.398438l37 9c5.398438 24.300781 15 47.398437 28.199219 68.398437l-18.898438 31.800782 58.796875 58.800781 31.804688-18.898438c20.996094 13.199219 44.097656 22.800781 68.398437 28.199219l9 37h83.398438l9-37c24.300781-5.398438 47.402343-15 68.398437-28.199219l31.804688 18.898438 58.796875-58.800781-18.898438-31.800782c13.199219-21 22.800781-44.097656 28.199219-68.398437l37-9v-83.398438zm-219 215.699219c-90.902344 0-165-74.101562-165-165 0-90.902344 74.097656-165 165-165s165 74.097656 165 165c0 90.898438-74.097656 165-165 165zm0 0" fill="#e3eeff"/>
<path d="m512 214.300781v83.398438l-37 9c-5.398438 24.300781-15 47.398437-28.199219 68.398437l18.898438 31.800782-58.796875 58.800781-31.804688-18.898438c-20.996094 13.199219-44.097656 22.800781-68.398437 28.199219l-9 37h-41.699219v-91c90.902344 0 165-74.101562 165-165 0-90.902344-74.097656-165-165-165v-91h41.699219l9 37c24.300781 5.398438 47.402343 15 68.398437 28.199219l31.804688-18.898438 58.796875 58.796875-18.898438 31.800782c13.199219 21 22.800781 44.101562 28.199219 68.402343zm0 0" fill="#c4d9f2"/>
</svg>